# xmcd
#
# Track frame offsets: 
#        150
#        19527
#        42030
#        64927
#        86382
#        121875
#        137337
#        158712
#        188392
#        214245
#
# Disc length: 3423 seconds
#
# Revision: 6
# Processed by: cddbd v1.5.2PL0 Copyright (c) Steve Scherf et al.
# Submitted via: ExactAudioCopyFreeDBPlugin 1.0
#
DISCID=730d5d0a
DTITLE=Various Artist - A Tribute To Stevie Ray Vaughan
DYEAR=1996
DGENRE=Blues Rock
TTITLE0=Bonnie Raitt - Pride And Joy
TTITLE1=Jimmie Vaughan - Texas Flood
TTITLE2=B.B. King - Telephone Blues
TTITLE3=Buddy Guy - Long Way From Home
TTITLE4=Eric Clapton - Ain't Gone'n Give Up On Your Love
TTITLE5=Robert Cray - Love Struck Baby
TTITLE6=Dr. John - Cold Shot
TTITLE7=Jimmie Vaughan, Eric Clapton, Bonnie Raitt, Robert Cray, B.B. 
TTITLE7=King, Buddy Guy, Dr. John, Art Neville - Six Strings Down
TTITLE8=Jimmie Vaughan, Eric Clapton, Bonnie Raitt, Robert Cray, B.B. 
TTITLE8=King, Buddy Guy, Dr. John, Art Neville - Tick Tock
TTITLE9=Jimmie Vaughan, Eric Clapton, Bonnie Raitt, Robert Cray, B.B. 
TTITLE9=King, Buddy Guy, Dr. John, Art Neville - SRV Shuffle
EXTD=JV =Jimmie Vaughan \nEC =Eric Clapton\nBR =Bonnie Raitt\nRC =
EXTD=Robert Cray\nBB =B.B. King\nBG =Buddy Gut\nDrJ =Dr. John\nAN =
EXTD=Art Neville YEAR: 1996
EXTT0=
EXTT1=
EXTT2=
EXTT3=
EXTT4=
EXTT5=
EXTT6=
EXTT7=
EXTT8=
EXTT9=
PLAYORDER=
